<?xml version="1.0" encoding="UTF-8" standalone="no"?>
<!DOCTYPE svg PUBLIC "-//W3C//DTD SVG 1.1//EN"
 "http://www.w3.org/Graphics/SVG/1.1/DTD/svg11.dtd">
<!-- Generated by graphviz version 2.43.0 (0)
 -->
<!-- Title: pastafarianism Pages: 1 -->
<svg width="1091pt" height="332pt"
 viewBox="0.00 0.00 1091.33 332.00" xmlns="http://www.w3.org/2000/svg" xmlns:xlink="http://www.w3.org/1999/xlink">
<g id="graph0" class="graph" transform="scale(1 1) rotate(0) translate(4 328)">
<title>pastafarianism</title>
<polygon fill="white" stroke="transparent" points="-4,4 -4,-328 1087.33,-328 1087.33,4 -4,4"/>
<!-- StrategyRoot -->
<g id="node1" class="node">
<title>StrategyRoot</title>
<polygon fill="cyan" stroke="black" points="654.28,-298.54 654.28,-313.46 626.03,-324 586.06,-324 557.81,-313.46 557.81,-298.54 586.06,-288 626.03,-288 654.28,-298.54"/>
<text text-anchor="middle" x="606.04" y="-303.8" font-family="Times,serif" font-size="9.00">StrategyRoot</text>
</g>
<!-- Attack Logic -->
<g id="node2" class="node">
<title>Attack Logic</title>
<polygon fill="orange" stroke="black" points="561.54,-252 486.54,-252 486.54,-216 561.54,-216 561.54,-252"/>
<text text-anchor="middle" x="524.04" y="-231.8" font-family="Times,serif" font-size="9.00">Attack Logic</text>
</g>
<!-- StrategyRoot&#45;&gt;Attack Logic -->
<g id="edge1" class="edge">
<title>StrategyRoot&#45;&gt;Attack Logic</title>
<path fill="none" stroke="black" d="M585.77,-287.7C575.55,-278.97 562.98,-268.24 551.87,-258.75"/>
<polygon fill="black" stroke="black" points="553.96,-255.94 544.08,-252.1 549.41,-261.26 553.96,-255.94"/>
</g>
<!-- Defense Logic -->
<g id="node11" class="node">
<title>Defense Logic</title>
<polygon fill="orange" stroke="black" points="730.04,-252 648.04,-252 648.04,-216 730.04,-216 730.04,-252"/>
<text text-anchor="middle" x="689.04" y="-231.8" font-family="Times,serif" font-size="9.00">Defense Logic</text>
</g>
<!-- StrategyRoot&#45;&gt;Defense Logic -->
<g id="edge13" class="edge">
<title>StrategyRoot&#45;&gt;Defense Logic</title>
<path fill="none" stroke="black" d="M626.56,-287.7C636.91,-278.97 649.63,-268.24 660.88,-258.75"/>
<polygon fill="black" stroke="black" points="663.38,-261.23 668.76,-252.1 658.86,-255.88 663.38,-261.23"/>
</g>
<!-- verify team ball posetion -->
<g id="node3" class="node">
<title>verify team ball posetion</title>
<ellipse fill="gray" stroke="black" cx="371.04" cy="-162" rx="75.77" ry="18"/>
<text text-anchor="middle" x="371.04" y="-159.8" font-family="Times,serif" font-size="9.00">verify team ball posetion</text>
</g>
<!-- Attack Logic&#45;&gt;verify team ball posetion -->
<g id="edge2" class="edge">
<title>Attack Logic&#45;&gt;verify team ball posetion</title>
<path fill="none" stroke="black" d="M486.62,-215.88C464.53,-205.77 436.51,-192.95 413.59,-182.47"/>
<polygon fill="black" stroke="black" points="414.99,-179.26 404.44,-178.28 412.08,-185.62 414.99,-179.26"/>
</g>
<!-- Team Has Ball -->
<g id="node4" class="node">
<title>Team Has Ball</title>
<polygon fill="cyan" stroke="black" points="583.28,-154.54 583.28,-169.46 548.58,-180 499.51,-180 464.81,-169.46 464.81,-154.54 499.51,-144 548.58,-144 583.28,-154.54"/>
<text text-anchor="middle" x="524.04" y="-159.8" font-family="Times,serif" font-size="9.00">Ⓜ Team Has Ball</text>
</g>
<!-- Attack Logic&#45;&gt;Team Has Ball -->
<g id="edge3" class="edge">
<title>Attack Logic&#45;&gt;Team Has Ball</title>
<path fill="none" stroke="black" d="M524.04,-215.7C524.04,-207.98 524.04,-198.71 524.04,-190.11"/>
<polygon fill="black" stroke="black" points="527.54,-190.1 524.04,-180.1 520.54,-190.1 527.54,-190.1"/>
</g>
<!-- Ball_possetion -->
<g id="node5" class="node">
<title>Ball_possetion</title>
<polygon fill="orange" stroke="black" points="618.04,-108 430.04,-108 430.04,-72 618.04,-72 618.04,-108"/>
<text text-anchor="middle" x="524.04" y="-87.8" font-family="Times,serif" font-size="9.00">Ball_possetion: with_ball_slow_attack</text>
</g>
<!-- Team Has Ball&#45;&gt;Ball_possetion -->
<g id="edge4" class="edge">
<title>Team Has Ball&#45;&gt;Ball_possetion: Simple_attack</title>
<path fill="none" stroke="black" d="M512.21,-143.7C510.62,-135.98 510.17,-126.71 510.85,-118.11"/>
<polygon fill="black" stroke="black" points="514.33,-118.49 512.25,-108.1 507.4,-117.52 514.33,-118.49"/>
</g>
<!-- Team Has Ball&#45;&gt;Ball_possetion -->
<g id="edge7" class="edge">
<title>Team Has Ball&#45;&gt;Ball_possetion: Attack_from_recovery</title>
<path fill="none" stroke="black" d="M524.04,-143.7C524.04,-135.98 524.04,-126.71 524.04,-118.11"/>
<polygon fill="black" stroke="black" points="527.54,-118.1 524.04,-108.1 520.54,-118.1 527.54,-118.1"/>
</g>
<!-- Team Has Ball&#45;&gt;Ball_possetion -->
<g id="edge10" class="edge">
<title>Team Has Ball&#45;&gt;Ball_possetion: with_ball_slow_attack</title>
<path fill="none" stroke="black" d="M535.88,-143.7C537.47,-135.98 537.92,-126.71 537.23,-118.11"/>
<polygon fill="black" stroke="black" points="540.69,-117.52 535.83,-108.1 533.75,-118.49 540.69,-117.52"/>
</g>
<!-- verify simple atack -->
<g id="node6" class="node">
<title>verify simple atack</title>
<ellipse fill="gray" stroke="black" cx="60.04" cy="-18" rx="60.09" ry="18"/>
<text text-anchor="middle" x="60.04" y="-15.8" font-family="Times,serif" font-size="9.00">verify simple atack</text>
</g>
<!-- Ball_possetion&#45;&gt;verify simple atack -->
<g id="edge5" class="edge">
<title>Ball_possetion: Simple_attack&#45;&gt;verify simple atack</title>
<path fill="none" stroke="black" d="M429.81,-79.26C349.49,-70.26 231.18,-55.38 129.04,-36 124.02,-35.05 118.82,-33.96 113.62,-32.8"/>
<polygon fill="black" stroke="black" points="114.22,-29.35 103.69,-30.51 112.65,-36.17 114.22,-29.35"/>
</g>
<!-- context -->
<g id="node7" class="node">
<title>context</title>
<ellipse fill="gray" stroke="black" cx="204.04" cy="-18" rx="66.29" ry="18"/>
<text text-anchor="middle" x="204.04" y="-15.8" font-family="Times,serif" font-size="9.00">context: simple atack</text>
</g>
<!-- Ball_possetion&#45;&gt;context -->
<g id="edge6" class="edge">
<title>Ball_possetion: Simple_attack&#45;&gt;context: simple atack</title>
<path fill="none" stroke="black" d="M444.28,-71.95C396.36,-61.66 334.17,-48.21 279.04,-36 273.96,-34.87 268.69,-33.7 263.39,-32.51"/>
<polygon fill="black" stroke="black" points="263.77,-29.01 253.25,-30.23 262.24,-35.84 263.77,-29.01"/>
</g>
<!-- verify atack from recovery -->
<g id="node8" class="node">
<title>verify atack from recovery</title>
<ellipse fill="gray" stroke="black" cx="368.04" cy="-18" rx="79.85" ry="18"/>
<text text-anchor="middle" x="368.04" y="-15.8" font-family="Times,serif" font-size="9.00">verify atack from recovery</text>
</g>
<!-- Ball_possetion&#45;&gt;verify atack from recovery -->
<g id="edge8" class="edge">
<title>Ball_possetion: Attack_from_recovery&#45;&gt;verify atack from recovery</title>
<path fill="none" stroke="black" d="M485.88,-71.88C463.37,-61.77 434.8,-48.95 411.43,-38.47"/>
<polygon fill="black" stroke="black" points="412.65,-35.18 402.1,-34.28 409.79,-41.57 412.65,-35.18"/>
</g>
<!-- Context -->
<g id="node9" class="node">
<title>Context</title>
<ellipse fill="gray" stroke="black" cx="530.04" cy="-18" rx="64.83" ry="18"/>
<text text-anchor="middle" x="530.04" y="-15.8" font-family="Times,serif" font-size="9.00">Context: slow_attack</text>
</g>
<!-- Ball_possetion&#45;&gt;Context -->
<g id="edge9" class="edge">
<title>Ball_possetion: Attack_from_recovery&#45;&gt;Context: recovery</title>
<path fill="none" stroke="black" d="M519.61,-71.7C519.48,-63.98 520.05,-54.71 521.13,-46.11"/>
<polygon fill="black" stroke="black" points="524.6,-46.52 522.68,-36.1 517.69,-45.45 524.6,-46.52"/>
</g>
<!-- Ball_possetion&#45;&gt;Context -->
<g id="edge12" class="edge">
<title>Ball_possetion: with_ball_slow_attack&#45;&gt;Context: slow_attack</title>
<path fill="none" stroke="black" d="M531.44,-71.7C532.9,-63.98 533.92,-54.71 534.32,-46.11"/>
<polygon fill="black" stroke="black" points="537.82,-46.16 534.47,-36.1 530.82,-46.05 537.82,-46.16"/>
</g>
<!-- verify is_slow_attack -->
<g id="node10" class="node">
<title>verify is_slow_attack</title>
<ellipse fill="gray" stroke="black" cx="677.04" cy="-18" rx="64.17" ry="18"/>
<text text-anchor="middle" x="677.04" y="-15.8" font-family="Times,serif" font-size="9.00">verify is_slow_attack</text>
</g>
<!-- Ball_possetion&#45;&gt;verify is_slow_attack -->
<g id="edge11" class="edge">
<title>Ball_possetion: with_ball_slow_attack&#45;&gt;verify is_slow_attack</title>
<path fill="none" stroke="black" d="M561.47,-71.88C583.94,-61.6 612.56,-48.5 635.7,-37.92"/>
<polygon fill="black" stroke="black" points="637.28,-41.04 644.92,-33.7 634.37,-34.68 637.28,-41.04"/>
</g>
<!-- verify foes have ball posetion -->
<g id="node12" class="node">
<title>verify foes have ball posetion</title>
<ellipse fill="gray" stroke="black" cx="689.04" cy="-162" rx="87.36" ry="18"/>
<text text-anchor="middle" x="689.04" y="-159.8" font-family="Times,serif" font-size="9.00">verify foes have ball posetion</text>
</g>
<!-- Defense Logic&#45;&gt;verify foes have ball posetion -->
<g id="edge14" class="edge">
<title>Defense Logic&#45;&gt;verify foes have ball posetion</title>
<path fill="none" stroke="black" d="M689.04,-215.7C689.04,-207.98 689.04,-198.71 689.04,-190.11"/>
<polygon fill="black" stroke="black" points="692.54,-190.1 689.04,-180.1 685.54,-190.1 692.54,-190.1"/>
</g>
<!-- foes Have Ball -->
<g id="node13" class="node">
<title>foes Have Ball</title>
<polygon fill="cyan" stroke="black" points="912.03,-154.54 912.03,-169.46 877.48,-180 828.61,-180 794.06,-169.46 794.06,-154.54 828.61,-144 877.48,-144 912.03,-154.54"/>
<text text-anchor="middle" x="853.04" y="-159.8" font-family="Times,serif" font-size="9.00">Ⓜ foes Have Ball</text>
</g>
<!-- Defense Logic&#45;&gt;foes Have Ball -->
<g id="edge15" class="edge">
<title>Defense Logic&#45;&gt;foes Have Ball</title>
<path fill="none" stroke="black" d="M729.16,-215.88C753.72,-205.4 785.12,-191.99 810.16,-181.3"/>
<polygon fill="black" stroke="black" points="811.6,-184.5 819.42,-177.35 808.85,-178.06 811.6,-184.5"/>
</g>
<!-- exemple_defense -->
<g id="node14" class="node">
<title>exemple_defense</title>
<polygon fill="orange" stroke="black" points="900.54,-108 805.54,-108 805.54,-72 900.54,-72 900.54,-108"/>
<text text-anchor="middle" x="853.04" y="-87.8" font-family="Times,serif" font-size="9.00">exemple_defense</text>
</g>
<!-- foes Have Ball&#45;&gt;exemple_defense -->
<g id="edge16" class="edge">
<title>foes Have Ball&#45;&gt;exemple_defense</title>
<path fill="none" stroke="black" d="M853.04,-143.7C853.04,-135.98 853.04,-126.71 853.04,-118.11"/>
<polygon fill="black" stroke="black" points="856.54,-118.1 853.04,-108.1 849.54,-118.1 856.54,-118.1"/>
</g>
<!-- verify exemple_of_defense -->
<g id="node15" class="node">
<title>verify exemple_of_defense</title>
<ellipse fill="gray" stroke="black" cx="848.04" cy="-18" rx="79.19" ry="18"/>
<text text-anchor="middle" x="848.04" y="-15.8" font-family="Times,serif" font-size="9.00">verify exemple_of_defense</text>
</g>
<!-- exemple_defense&#45;&gt;verify exemple_of_defense -->
<g id="edge17" class="edge">
<title>exemple_defense&#45;&gt;verify exemple_of_defense</title>
<path fill="none" stroke="black" d="M851.81,-71.7C851.26,-63.98 850.6,-54.71 849.98,-46.11"/>
<polygon fill="black" stroke="black" points="853.47,-45.83 849.27,-36.1 846.49,-46.33 853.47,-45.83"/>
</g>
<!-- iniciar exemplo defesa -->
<g id="node16" class="node">
<title>iniciar exemplo defesa</title>
<ellipse fill="gray" stroke="black" cx="1014.04" cy="-18" rx="69.06" ry="18"/>
<text text-anchor="middle" x="1014.04" y="-15.8" font-family="Times,serif" font-size="9.00">iniciar exemplo defesa</text>
</g>
<!-- exemple_defense&#45;&gt;iniciar exemplo defesa -->
<g id="edge18" class="edge">
<title>exemple_defense&#45;&gt;iniciar exemplo defesa</title>
<path fill="none" stroke="black" d="M892.43,-71.88C916.1,-61.59 946.25,-48.48 970.61,-37.89"/>
<polygon fill="black" stroke="black" points="972.2,-41.01 979.97,-33.81 969.41,-34.59 972.2,-41.01"/>
</g>
</g>
</svg>
